<svg width="25" height="24" viewBox="0 0 25 24" fill="none" xmlns="http://www.w3.org/2000/svg">
<path fill-rule="evenodd" clip-rule="evenodd" d="M18.7175 16.08C17.9536 16.08 17.27 16.38 16.7474 16.85L9.58043 12.7C9.63069 12.47 9.6709 12.24 9.6709 12C9.6709 11.76 9.63069 11.53 9.58043 11.3L16.6669 7.19C17.2097 7.69 17.9234 8 18.7175 8C20.3861 8 21.733 6.66 21.733 5C21.733 3.34 20.3861 2 18.7175 2C17.0489 2 15.702 3.34 15.702 5C15.702 5.24 15.7422 5.47 15.7924 5.7L8.70592 9.81C8.16313 9.31 7.44945 9 6.65536 9C4.98676 9 3.63982 10.34 3.63982 12C3.63982 13.66 4.98676 15 6.65536 15C7.44945 15 8.16313 14.69 8.70592 14.19L15.8628 18.35C15.8125 18.56 15.7824 18.78 15.7824 19C15.7824 20.61 17.0992 21.92 18.7175 21.92C20.3358 21.92 21.6526 20.61 21.6526 19C21.6526 17.39 20.3358 16.08 18.7175 16.08Z" fill="white" fill-opacity="0.74"/>
</svg>
