<svg width="22" height="18" viewBox="0 0 22 18" fill="none" xmlns="http://www.w3.org/2000/svg">
<g clip-path="url(#clip0_58_590)">
<path d="M3.32065 5.00812H5.09949M5.09949 5.00812H19.3303M5.09949 5.00812V14.8718C5.09949 15.2455 5.28691 15.6039 5.62051 15.8681C5.9541 16.1324 6.40656 16.2808 6.87834 16.2808H15.7726C16.2443 16.2808 16.6968 16.1324 17.0304 15.8681C17.364 15.6039 17.5514 15.2455 17.5514 14.8718V5.00812H5.09949ZM7.76776 5.00812V3.59903C7.76776 3.22532 7.95518 2.86691 8.28878 2.60265C8.62237 2.3384 9.07483 2.18994 9.54661 2.18994H13.1043C13.5761 2.18994 14.0285 2.3384 14.3621 2.60265C14.6957 2.86691 14.8831 3.22532 14.8831 3.59903V5.00812M9.54661 8.53085V12.7581M13.1043 8.53085V12.7581" stroke="#FF0000" stroke-width="1.5" stroke-linecap="round" stroke-linejoin="round"/>
</g>
<defs>
<clipPath id="clip0_58_590">
<rect width="21.3462" height="16.9091" fill="white" transform="translate(0.652374 0.780823)"/>
</clipPath>
</defs>
</svg>
